<svg xmlns="http://www.w3.org/2000/svg" width="100" height="100" viewBox="0 0 100 100">
    <rect x="10" y="10" width="80" height="100" rx="5" ry="5" fill="#3C5186"/>
    <polygon points="10,10 60,10 80,30 80,110 10,110" fill="#6574B0"/>

    <path d="M 30 40 Q 35 35 40 40 T 50 40 Q 55 45 60 40 T 70 40" stroke="#F0E68C" stroke-width="2" fill="none"/>
    <path d="M 30 60 Q 35 55 40 60 T 50 60 Q 55 65 60 60 T 70 60" stroke="#FF6347" stroke-width="2" fill="none"/>
    <path d="M 30 80 Q 35 75 40 80 T 50 80 Q 55 85 60 80 T 70 80" stroke="#90EE90" stroke-width="2" fill="none"/>

    <circle cx="30" cy="40" r="3" fill="#FF6347"/>
    <circle cx="50" cy="40" r="3" fill="#F0E68C"/>
    <circle cx="70" cy="40" r="3" fill="#90EE90"/>

    <circle cx="30" cy="60" r="3" fill="#FF6347"/>
    <circle cx="50" cy="60" r="3" fill="#F0E68C"/>
    <circle cx="70" cy="60" r="3" fill="#90EE90"/>

    <circle cx="30" cy="80" r="3" fill="#FF6347"/>
    <circle cx="50" cy="80" r="3" fill="#F0E68C"/>
    <circle cx="70" cy="80" r="3" fill="#90EE90"/>

    <text x="15" y="30" font-family="Arial" font-size="14" fill="#FFFFFF">O-I-F</text>
</svg>
